<svg xmlns="http://www.w3.org/2000/svg" viewBox="0 0 287.8 287.8" width="288" height="288" role="img" aria-label="Ground Floor Industries">
  <title>Ground Floor Industries — icon</title>
  <g transform="translate(15.42,47.42)">
    <polygon points="86.25,30.32 86.25,70.09 120.00,59.32 120.00,148.25 139.75,148.25 139.75,2.86" fill="#709D9A" stroke="#E2C27A" stroke-width="3.5" stroke-linejoin="miter"/><polygon points="88.90,31.94 88.90,66.46 122.65,55.69 122.65,145.60 137.10,145.60 137.10,7.20" fill="none" stroke="#F4E3BC" stroke-width="0.8" stroke-opacity="0.8" stroke-linejoin="miter"/>
    <polygon points="147.50,38.10 147.50,148.25 187.25,148.25 187.25,54.18" fill="#3F737B" stroke="#E2C27A" stroke-width="3.5" stroke-linejoin="miter"/><polygon points="150.15,42.03 150.15,145.60 184.60,145.60 184.60,55.97" fill="none" stroke="#F4E3BC" stroke-width="0.8" stroke-opacity="0.8" stroke-linejoin="miter"/>
    <polygon points="195.00,111.08 195.00,148.25 224.75,148.25 224.75,122.94" fill="#B3854A" stroke="#E2C27A" stroke-width="3.5" stroke-linejoin="miter"/><polygon points="197.65,114.99 197.65,145.60 222.10,145.60 222.10,124.73" fill="none" stroke="#F4E3BC" stroke-width="0.8" stroke-opacity="0.8" stroke-linejoin="miter"/>
    <polygon points="32.00,95.53 32.00,148.25 112.25,148.25 112.25,69.93" fill="#76865E" stroke="#E2C27A" stroke-width="3.5" stroke-linejoin="miter"/>
    <polygon points="33.75,146.50 68.25,146.50 68.25,85.80 33.75,96.81" fill="#D0AC48"/>
    <polygon points="34.65,97.46 34.65,145.60 109.60,145.60 109.60,73.56" fill="none" stroke="#F4E3BC" stroke-width="0.8" stroke-opacity="0.8" stroke-linejoin="miter"/>
    <line x1="68.25" y1="85.63" x2="68.25" y2="146.50" stroke="#F4E3BC" stroke-width="1.6"/>
    <rect x="0" y="154" width="257" height="9" fill="#E6C57C"/>
    <rect x="29" y="169" width="199" height="9" fill="#E6C57C"/>
    <rect x="63" y="184" width="130" height="9" fill="#E6C57C"/>
  </g>
</svg>
